STARTFONT 2.1
FONT -Monotype-Book Antiqua-Bold-R-Normal--12-120-75-75-P-65-iso8859-2
SIZE 12 75 75
FONTBOUNDINGBOX 15 17 -2 -4

STARTPROPERTIES 24
FOUNDRY "Monotype"
FAMILY_NAME "Book Antiqua"
WEIGHT_NAME "Bold"
SLANT "R"
SETWIDTH_NAME "Normal"
ADD_STYLE_NAME ""
PIXEL_SIZE 12
POINT_SIZE 120
RESOLUTION_X 75
RESOLUTION_Y 75
SPACING "P"
AVERAGE_WIDTH 65
CHARSET_REGISTRY "iso8859"
CHARSET_ENCODING "2"
FACE_NAME "Book Antiqua Bold ISO Latin2"
_DEC_DEVICE_FONTNAMES "PS=bookantiqua-b-lat2"
COPYRIGHT "Copyright (c) 1994 Monotype Typography Ltd."
CAP_HEIGHT 11
X_HEIGHT 8
WEIGHT 10
QUAD_WIDTH 8
DEFAULT_CHAR 160
FONT_DESCENT 4
FONT_ASCENT 13
ENDPROPERTIES

CHARS 191

STARTCHAR space
ENCODING 32
SWIDTH 250 0
DWIDTH 3 0
BBX 0 0 0 0
BITMAP
ENDCHAR

STARTCHAR exclam
ENCODING 33
SWIDTH 278 0
DWIDTH 4 0
BBX 2 10 1 0
BITMAP
C0
C0
C0
C0
C0
C0
C0
00
C0
C0
ENDCHAR

STARTCHAR quotedbl
ENCODING 34
SWIDTH 402 0
DWIDTH 5 0
BBX 5 4 0 5
BITMAP
D8
D8
48
48
ENDCHAR

STARTCHAR numbersign
ENCODING 35
SWIDTH 606 0
DWIDTH 8 0
BBX 8 9 0 0
BITMAP
12
12
7F
24
24
FE
48
48
48
ENDCHAR

STARTCHAR dollar
ENCODING 36
SWIDTH 500 0
DWIDTH 7 0
BBX 5 11 1 -1
BITMAP
20
78
C8
C0
E0
70
38
18
98
F0
20
ENDCHAR

STARTCHAR percent
ENCODING 37
SWIDTH 889 0
DWIDTH 12 0
BBX 11 9 1 0
BITMAP
6100
B100
B200
B200
64C0
0560
0960
0960
10C0
ENDCHAR

STARTCHAR ampersand
ENCODING 38
SWIDTH 833 0
DWIDTH 11 0
BBX 10 9 1 0
BITMAP
1800
2C00
2400
3800
73C0
D900
CD00
E640
7B80
ENDCHAR

STARTCHAR quoteright
ENCODING 39
SWIDTH 278 0
DWIDTH 4 0
BBX 3 4 1 6
BITMAP
60
60
40
80
ENDCHAR

STARTCHAR parenleft
ENCODING 40
SWIDTH 333 0
DWIDTH 4 0
BBX 3 13 1 -3
BITMAP
20
60
40
C0
C0
C0
C0
C0
C0
C0
40
60
20
ENDCHAR

STARTCHAR parenright
ENCODING 41
SWIDTH 333 0
DWIDTH 4 0
BBX 3 13 1 -3
BITMAP
80
C0
40
60
60
60
60
60
60
60
40
C0
80
ENDCHAR

STARTCHAR asterisk
ENCODING 42
SWIDTH 444 0
DWIDTH 6 0
BBX 5 4 1 6
BITMAP
A8
70
70
A8
ENDCHAR

STARTCHAR plus
ENCODING 43
SWIDTH 606 0
DWIDTH 8 0
BBX 7 7 1 1
BITMAP
10
10
10
FE
10
10
10
ENDCHAR

STARTCHAR comma
ENCODING 44
SWIDTH 250 0
DWIDTH 3 0
BBX 3 4 0 -2
BITMAP
60
60
40
80
ENDCHAR

STARTCHAR minus
ENCODING 45
SWIDTH 606 0
DWIDTH 8 0
BBX 6 1 1 4
BITMAP
FC
ENDCHAR

STARTCHAR period
ENCODING 46
SWIDTH 250 0
DWIDTH 3 0
BBX 2 2 1 0
BITMAP
C0
C0
ENDCHAR

STARTCHAR slash
ENCODING 47
SWIDTH 296 0
DWIDTH 4 0
BBX 7 13 -1 -3
BITMAP
02
06
04
0C
08
18
10
30
20
60
40
C0
80
ENDCHAR

STARTCHAR zero
ENCODING 48
SWIDTH 500 0
DWIDTH 7 0
BBX 6 9 1 0
BITMAP
30
48
CC
CC
CC
CC
CC
48
30
ENDCHAR

STARTCHAR one
ENCODING 49
SWIDTH 500 0
DWIDTH 7 0
BBX 6 9 1 0
BITMAP
10
F0
30
30
30
30
30
30
FC
ENDCHAR

STARTCHAR two
ENCODING 50
SWIDTH 500 0
DWIDTH 7 0
BBX 6 9 1 0
BITMAP
78
CC
8C
0C
08
10
20
7C
FC
ENDCHAR

STARTCHAR three
ENCODING 51
SWIDTH 500 0
DWIDTH 7 0
BBX 6 9 1 0
BITMAP
70
D8
98
10
38
0C
8C
C8
70
ENDCHAR

STARTCHAR four
ENCODING 52
SWIDTH 500 0
DWIDTH 7 0
BBX 6 9 1 0
BITMAP
08
18
38
38
58
98
FC
18
3C
ENDCHAR

STARTCHAR five
ENCODING 53
SWIDTH 500 0
DWIDTH 7 0
BBX 6 9 1 0
BITMAP
7C
7C
40
78
4C
0C
8C
C8
70
ENDCHAR

STARTCHAR six
ENCODING 54
SWIDTH 500 0
DWIDTH 7 0
BBX 6 9 1 0
BITMAP
18
20
40
C0
F8
CC
CC
CC
78
ENDCHAR

STARTCHAR seven
ENCODING 55
SWIDTH 500 0
DWIDTH 7 0
BBX 7 9 0 0
BITMAP
FE
FE
84
0C
08
18
10
30
20
ENDCHAR

STARTCHAR eight
ENCODING 56
SWIDTH 500 0
DWIDTH 7 0
BBX 5 9 1 0
BITMAP
70
88
C8
F0
78
98
88
88
70
ENDCHAR

STARTCHAR nine
ENCODING 57
SWIDTH 500 0
DWIDTH 7 0
BBX 6 9 1 0
BITMAP
78
CC
CC
CC
7C
0C
08
10
60
ENDCHAR

STARTCHAR colon
ENCODING 58
SWIDTH 250 0
DWIDTH 3 0
BBX 2 6 1 0
BITMAP
C0
C0
00
00
C0
C0
ENDCHAR

STARTCHAR semicolon
ENCODING 59
SWIDTH 250 0
DWIDTH 3 0
BBX 3 8 0 -2
BITMAP
60
60
00
00
60
60
40
80
ENDCHAR

STARTCHAR less
ENCODING 60
SWIDTH 606 0
DWIDTH 8 0
BBX 6 7 1 1
BITMAP
04
1C
70
C0
70
1C
04
ENDCHAR

STARTCHAR equal
ENCODING 61
SWIDTH 606 0
DWIDTH 8 0
BBX 6 3 1 3
BITMAP
FC
00
FC
ENDCHAR

STARTCHAR greater
ENCODING 62
SWIDTH 606 0
DWIDTH 8 0
BBX 6 7 1 1
BITMAP
80
E0
38
0C
38
E0
80
ENDCHAR

STARTCHAR question
ENCODING 63
SWIDTH 444 0
DWIDTH 6 0
BBX 5 10 1 0
BITMAP
70
D8
98
18
30
60
40
00
60
60
ENDCHAR

STARTCHAR at
ENCODING 64
SWIDTH 747 0
DWIDTH 10 0
BBX 9 11 1 -2
BITMAP
1F00
2080
4E80
9A80
9280
A480
BD00
B680
8080
4100
3E00
ENDCHAR

STARTCHAR A
ENCODING 65
SWIDTH 778 0
DWIDTH 10 0
BBX 9 9 1 0
BITMAP
0800
0800
1C00
1C00
2600
3E00
4300
4300
E780
ENDCHAR

STARTCHAR B
ENCODING 66
SWIDTH 667 0
DWIDTH 9 0
BBX 8 9 1 0
BITMAP
FE
63
63
63
7E
63
63
63
FE
ENDCHAR

STARTCHAR C
ENCODING 67
SWIDTH 722 0
DWIDTH 9 0
BBX 8 9 1 0
BITMAP
3F
61
C1
C0
C0
C0
C0
61
3E
ENDCHAR

STARTCHAR D
ENCODING 68
SWIDTH 833 0
DWIDTH 11 0
BBX 10 9 1 0
BITMAP
FF00
6180
60C0
60C0
60C0
60C0
60C0
6180
FF00
ENDCHAR

STARTCHAR E
ENCODING 69
SWIDTH 611 0
DWIDTH 8 0
BBX 7 9 1 0
BITMAP
FE
62
60
64
7C
64
60
62
FE
ENDCHAR

STARTCHAR F
ENCODING 70
SWIDTH 556 0
DWIDTH 8 0
BBX 7 9 1 0
BITMAP
FE
62
60
64
7C
64
60
60
F0
ENDCHAR

STARTCHAR G
ENCODING 71
SWIDTH 833 0
DWIDTH 11 0
BBX 10 9 1 0
BITMAP
3F80
6080
C080
C000
C000
C3C0
C180
6180
3F00
ENDCHAR

STARTCHAR H
ENCODING 72
SWIDTH 833 0
DWIDTH 11 0
BBX 10 9 1 0
BITMAP
F3C0
6180
6180
6180
7F80
6180
6180
6180
F3C0
ENDCHAR

STARTCHAR I
ENCODING 73
SWIDTH 389 0
DWIDTH 5 0
BBX 4 9 1 0
BITMAP
F0
60
60
60
60
60
60
60
F0
ENDCHAR

STARTCHAR J
ENCODING 74
SWIDTH 389 0
DWIDTH 5 0
BBX 4 12 1 -3
BITMAP
F0
60
60
60
60
60
60
60
60
60
40
80
ENDCHAR

STARTCHAR K
ENCODING 75
SWIDTH 778 0
DWIDTH 10 0
BBX 10 9 1 0
BITMAP
F780
6200
6400
6800
7C00
6600
6300
6180
F3C0
ENDCHAR

STARTCHAR L
ENCODING 76
SWIDTH 611 0
DWIDTH 8 0
BBX 7 9 1 0
BITMAP
F0
60
60
60
60
60
60
62
FE
ENDCHAR

STARTCHAR M
ENCODING 77
SWIDTH 1000 0
DWIDTH 13 0
BBX 12 9 1 0
BITMAP
E070
70E0
70E0
5960
5960
4E60
4E60
4460
E4F0
ENDCHAR

STARTCHAR N
ENCODING 78
SWIDTH 833 0
DWIDTH 10 0
BBX 9 9 1 0
BITMAP
E380
7100
7100
5900
5D00
4D00
4700
4700
E300
ENDCHAR

STARTCHAR O
ENCODING 79
SWIDTH 833 0
DWIDTH 10 0
BBX 9 9 1 0
BITMAP
3E00
6300
C180
C180
C180
C180
C180
6300
3E00
ENDCHAR

STARTCHAR P
ENCODING 80
SWIDTH 611 0
DWIDTH 8 0
BBX 7 9 1 0
BITMAP
FC
66
66
66
6C
60
60
60
F0
ENDCHAR

STARTCHAR Q
ENCODING 81
SWIDTH 833 0
DWIDTH 10 0
BBX 9 11 1 -2
BITMAP
3E00
6300
C180
C180
C180
C180
C180
6300
3E00
0C00
1B80
ENDCHAR

STARTCHAR R
ENCODING 82
SWIDTH 722 0
DWIDTH 9 0
BBX 9 9 1 0
BITMAP
FE00
6300
6300
6200
7C00
6C00
6600
6300
F380
ENDCHAR

STARTCHAR S
ENCODING 83
SWIDTH 611 0
DWIDTH 8 0
BBX 7 9 1 0
BITMAP
3E
42
C0
F0
7C
1E
06
84
F8
ENDCHAR

STARTCHAR T
ENCODING 84
SWIDTH 667 0
DWIDTH 9 0
BBX 8 9 1 0
BITMAP
FF
99
18
18
18
18
18
18
3C
ENDCHAR

STARTCHAR U
ENCODING 85
SWIDTH 778 0
DWIDTH 11 0
BBX 10 9 1 0
BITMAP
F1C0
6080
6080
6080
6080
6080
6080
3100
1E00
ENDCHAR

STARTCHAR V
ENCODING 86
SWIDTH 778 0
DWIDTH 9 0
BBX 10 9 0 0
BITMAP
F1C0
6080
6100
3100
3200
1A00
1C00
0C00
0800
ENDCHAR

STARTCHAR W
ENCODING 87
SWIDTH 1000 0
DWIDTH 12 0
BBX 13 9 0 0
BITMAP
F338
6310
6310
67A0
35A0
35A0
39C0
18C0
18C0
ENDCHAR

STARTCHAR X
ENCODING 88
SWIDTH 667 0
DWIDTH 10 0
BBX 9 9 1 0
BITMAP
E380
6600
3600
3C00
1C00
1E00
3600
3300
E380
ENDCHAR

STARTCHAR Y
ENCODING 89
SWIDTH 667 0
DWIDTH 9 0
BBX 9 9 0 0
BITMAP
F380
6100
3200
1C00
0C00
0C00
0C00
0C00
1E00
ENDCHAR

STARTCHAR Z
ENCODING 90
SWIDTH 667 0
DWIDTH 9 0
BBX 8 9 1 0
BITMAP
FF
86
0C
0C
18
30
30
61
FF
ENDCHAR

STARTCHAR bracketleft
ENCODING 91
SWIDTH 333 0
DWIDTH 4 0
BBX 3 13 1 -3
BITMAP
E0
C0
C0
C0
C0
C0
C0
C0
C0
C0
C0
C0
E0
ENDCHAR

STARTCHAR backslash
ENCODING 92
SWIDTH 606 0
DWIDTH 8 0
BBX 7 13 1 -3
BITMAP
80
C0
40
60
20
30
10
18
08
0C
04
06
02
ENDCHAR

STARTCHAR bracketright
ENCODING 93
SWIDTH 333 0
DWIDTH 4 0
BBX 3 13 1 -3
BITMAP
E0
60
60
60
60
60
60
60
60
60
60
60
E0
ENDCHAR

STARTCHAR asciicircum
ENCODING 94
SWIDTH 606 0
DWIDTH 8 0
BBX 6 5 1 4
BITMAP
30
30
78
48
84
ENDCHAR

STARTCHAR underscore
ENCODING 95
SWIDTH 500 0
DWIDTH 7 0
BBX 7 1 0 -2
BITMAP
FE
ENDCHAR

STARTCHAR quoteleft
ENCODING 96
SWIDTH 278 0
DWIDTH 4 0
BBX 3 4 1 6
BITMAP
20
40
C0
C0
ENDCHAR

STARTCHAR a
ENCODING 97
SWIDTH 500 0
DWIDTH 7 0
BBX 6 6 1 0
BITMAP
70
18
78
D8
D8
6C
ENDCHAR

STARTCHAR b
ENCODING 98
SWIDTH 611 0
DWIDTH 8 0
BBX 7 10 0 0
BITMAP
20
E0
60
60
6C
76
66
66
66
5C
ENDCHAR

STARTCHAR c
ENCODING 99
SWIDTH 444 0
DWIDTH 6 0
BBX 5 6 1 0
BITMAP
78
C8
C0
C0
C8
70
ENDCHAR

STARTCHAR d
ENCODING 100
SWIDTH 611 0
DWIDTH 8 0
BBX 7 10 1 0
BITMAP
04
1C
0C
0C
6C
DC
CC
CC
DC
6E
ENDCHAR

STARTCHAR e
ENCODING 101
SWIDTH 500 0
DWIDTH 7 0
BBX 5 6 1 0
BITMAP
70
D8
F8
C0
C8
70
ENDCHAR

STARTCHAR f
ENCODING 102
SWIDTH 389 0
DWIDTH 5 0
BBX 5 10 0 0
BITMAP
38
68
60
60
F8
60
60
60
60
F0
ENDCHAR

STARTCHAR g
ENCODING 103
SWIDTH 556 0
DWIDTH 7 0
BBX 7 9 0 -3
BITMAP
7A
CC
CC
CC
78
40
7C
C6
7C
ENDCHAR

STARTCHAR h
ENCODING 104
SWIDTH 611 0
DWIDTH 8 0
BBX 8 10 0 0
BITMAP
20
E0
60
60
6C
76
66
66
66
F7
ENDCHAR

STARTCHAR i
ENCODING 105
SWIDTH 333 0
DWIDTH 4 0
BBX 4 9 0 0
BITMAP
60
60
00
20
E0
60
60
60
F0
ENDCHAR

STARTCHAR j
ENCODING 106
SWIDTH 333 0
DWIDTH 4 0
BBX 3 12 0 -3
BITMAP
60
60
00
20
E0
60
60
60
60
60
40
80
ENDCHAR

STARTCHAR k
ENCODING 107
SWIDTH 611 0
DWIDTH 8 0
BBX 8 10 0 0
BITMAP
20
E0
60
60
66
68
78
6C
6C
E7
ENDCHAR

STARTCHAR l
ENCODING 108
SWIDTH 333 0
DWIDTH 4 0
BBX 4 10 0 0
BITMAP
20
E0
60
60
60
60
60
60
60
F0
ENDCHAR

STARTCHAR m
ENCODING 109
SWIDTH 889 0
DWIDTH 12 0
BBX 12 6 0 0
BITMAP
2EC0
F760
6660
6660
6660
F770
ENDCHAR

STARTCHAR n
ENCODING 110
SWIDTH 611 0
DWIDTH 8 0
BBX 8 6 0 0
BITMAP
2C
F6
66
66
66
F7
ENDCHAR

STARTCHAR o
ENCODING 111
SWIDTH 556 0
DWIDTH 8 0
BBX 6 6 1 0
BITMAP
78
CC
CC
CC
CC
78
ENDCHAR

STARTCHAR p
ENCODING 112
SWIDTH 611 0
DWIDTH 8 0
BBX 7 9 0 -3
BITMAP
2C
F6
66
66
76
6C
60
60
F0
ENDCHAR

STARTCHAR q
ENCODING 113
SWIDTH 611 0
DWIDTH 8 0
BBX 7 9 1 -3
BITMAP
74
CC
CC
CC
DC
6C
0C
0C
1E
ENDCHAR

STARTCHAR r
ENCODING 114
SWIDTH 389 0
DWIDTH 5 0
BBX 6 6 0 0
BITMAP
2C
FC
60
60
60
F0
ENDCHAR

STARTCHAR s
ENCODING 115
SWIDTH 444 0
DWIDTH 6 0
BBX 4 6 1 0
BITMAP
70
C0
E0
70
30
E0
ENDCHAR

STARTCHAR t
ENCODING 116
SWIDTH 333 0
DWIDTH 4 0
BBX 5 9 0 0
BITMAP
20
60
60
F8
60
60
60
68
30
ENDCHAR

STARTCHAR u
ENCODING 117
SWIDTH 611 0
DWIDTH 8 0
BBX 8 6 0 0
BITMAP
22
EE
66
66
66
3B
ENDCHAR

STARTCHAR v
ENCODING 118
SWIDTH 556 0
DWIDTH 7 0
BBX 7 6 0 0
BITMAP
EE
64
68
38
30
10
ENDCHAR

STARTCHAR w
ENCODING 119
SWIDTH 833 0
DWIDTH 11 0
BBX 11 6 0 0
BITMAP
F6E0
6640
6680
6A80
3300
3300
ENDCHAR

STARTCHAR x
ENCODING 120
SWIDTH 500 0
DWIDTH 7 0
BBX 7 6 0 0
BITMAP
C6
68
38
38
2C
C6
ENDCHAR

STARTCHAR y
ENCODING 121
SWIDTH 556 0
DWIDTH 7 0
BBX 7 9 0 -3
BITMAP
F6
64
34
38
18
10
10
20
C0
ENDCHAR

STARTCHAR z
ENCODING 122
SWIDTH 500 0
DWIDTH 7 0
BBX 6 6 1 0
BITMAP
FC
98
30
30
64
FC
ENDCHAR

STARTCHAR braceleft
ENCODING 123
SWIDTH 310 0
DWIDTH 4 0
BBX 4 13 0 -3
BITMAP
30
60
60
60
60
60
C0
60
60
60
60
60
30
ENDCHAR

STARTCHAR bar
ENCODING 124
SWIDTH 606 0
DWIDTH 8 0
BBX 2 13 3 -3
BITMAP
C0
C0
C0
C0
C0
C0
C0
C0
C0
C0
C0
C0
C0
ENDCHAR

STARTCHAR braceright
ENCODING 125
SWIDTH 310 0
DWIDTH 4 0
BBX 4 13 0 -3
BITMAP
C0
60
60
60
60
60
30
60
60
60
60
60
C0
ENDCHAR

STARTCHAR asciitilde
ENCODING 126
SWIDTH 606 0
DWIDTH 8 0
BBX 6 2 1 4
BITMAP
74
B8
ENDCHAR

STARTCHAR space
ENCODING 160
SWIDTH 250 0
DWIDTH 4 0
BBX 0 0 0 0
BITMAP
ENDCHAR

STARTCHAR Aogonek
ENCODING 161
SWIDTH 778 0
DWIDTH 10 0
BBX 9 11 1 -2
BITMAP
0800
0800
1C00
1C00
2600
3E00
4300
4300
E780
0200
0180
ENDCHAR

STARTCHAR breve
ENCODING 162
SWIDTH 333 0
DWIDTH 4 0
BBX 5 2 0 7
BITMAP
88
70
ENDCHAR

STARTCHAR Lslash
ENCODING 163
SWIDTH 611 0
DWIDTH 8 0
BBX 7 9 1 0
BITMAP
F0
60
68
70
60
E0
60
62
FE
ENDCHAR

STARTCHAR currency
ENCODING 164
SWIDTH 606 0
DWIDTH 8 0
BBX 6 6 1 2
BITMAP
B4
48
CC
CC
48
B4
ENDCHAR

STARTCHAR Lcaron
ENCODING 165
SWIDTH 611 0
DWIDTH 8 0
BBX 7 9 1 0
BITMAP
F6
62
64
60
60
60
60
62
FE
ENDCHAR

STARTCHAR Sacute
ENCODING 166
SWIDTH 611 0
DWIDTH 8 0
BBX 7 12 1 0
BITMAP
0C
10
00
3E
42
C0
F0
7C
1E
06
84
F8
ENDCHAR

STARTCHAR section
ENCODING 167
SWIDTH 500 0
DWIDTH 7 0
BBX 5 13 1 -3
BITMAP
78
88
C0
60
F0
98
88
C8
78
30
18
88
F0
ENDCHAR

STARTCHAR dieresis
ENCODING 168
SWIDTH 333 0
DWIDTH 4 0
BBX 5 1 0 7
BITMAP
D8
ENDCHAR

STARTCHAR Scaron
ENCODING 169
SWIDTH 611 0
DWIDTH 8 0
BBX 7 12 1 0
BITMAP
24
18
00
3E
42
C0
F0
7C
1E
06
84
F8
ENDCHAR

STARTCHAR Scommaaccent
ENCODING 170
SWIDTH 611 0
DWIDTH 8 0
BBX 7 13 1 -4
BITMAP
3E
42
C0
F0
7C
1E
06
84
F8
00
30
10
20
ENDCHAR

STARTCHAR Tcaron
ENCODING 171
SWIDTH 667 0
DWIDTH 9 0
BBX 8 12 1 0
BITMAP
24
18
00
FF
99
18
18
18
18
18
18
3C
ENDCHAR

STARTCHAR Zacute
ENCODING 172
SWIDTH 667 0
DWIDTH 9 0
BBX 8 12 1 0
BITMAP
0C
10
00
FF
86
0C
0C
18
30
30
61
FF
ENDCHAR

STARTCHAR hyphen
ENCODING 173
SWIDTH 333 0
DWIDTH 4 0
BBX 4 1 0 3
BITMAP
F0
ENDCHAR

STARTCHAR Zcaron
ENCODING 174
SWIDTH 667 0
DWIDTH 9 0
BBX 8 12 1 0
BITMAP
24
18
00
FF
86
0C
0C
18
30
30
61
FF
ENDCHAR

STARTCHAR Zdotaccent
ENCODING 175
SWIDTH 667 0
DWIDTH 9 0
BBX 8 11 1 0
BITMAP
18
00
FF
86
0C
0C
18
30
30
61
FF
ENDCHAR

STARTCHAR degree
ENCODING 176
SWIDTH 396 0
DWIDTH 5 0
BBX 4 4 1 5
BITMAP
60
B0
B0
60
ENDCHAR

STARTCHAR aogonek
ENCODING 177
SWIDTH 500 0
DWIDTH 7 0
BBX 7 8 1 -2
BITMAP
70
18
78
D8
D8
6C
08
06
ENDCHAR

STARTCHAR ogonek
ENCODING 178
SWIDTH 333 0
DWIDTH 4 0
BBX 3 2 1 -2
BITMAP
80
60
ENDCHAR

STARTCHAR lslash
ENCODING 179
SWIDTH 333 0
DWIDTH 4 0
BBX 4 10 0 0
BITMAP
20
E0
60
70
60
E0
60
60
60
F0
ENDCHAR

STARTCHAR acute
ENCODING 180
SWIDTH 333 0
DWIDTH 4 0
BBX 3 2 2 7
BITMAP
60
80
ENDCHAR

STARTCHAR lcaron
ENCODING 181
SWIDTH 449 0
DWIDTH 4 0
BBX 5 10 0 0
BITMAP
28
E8
70
60
60
60
60
60
60
F0
ENDCHAR

STARTCHAR sacute
ENCODING 182
SWIDTH 444 0
DWIDTH 6 0
BBX 4 9 1 0
BITMAP
30
40
00
70
C0
E0
70
30
E0
ENDCHAR

STARTCHAR caron
ENCODING 183
SWIDTH 333 0
DWIDTH 4 0
BBX 4 2 0 7
BITMAP
90
60
ENDCHAR

STARTCHAR commaaccent
ENCODING 184
SWIDTH 333 0
DWIDTH 4 0
BBX 2 3 1 -4
BITMAP
C0
40
80
ENDCHAR

STARTCHAR scaron
ENCODING 185
SWIDTH 444 0
DWIDTH 6 0
BBX 4 9 1 0
BITMAP
90
60
00
70
C0
E0
70
30
E0
ENDCHAR

STARTCHAR scommaaccent
ENCODING 186
SWIDTH 444 0
DWIDTH 6 0
BBX 4 10 1 -4
BITMAP
70
C0
E0
70
30
E0
00
60
20
40
ENDCHAR

STARTCHAR tcaron
ENCODING 187
SWIDTH 420 0
DWIDTH 4 0
BBX 5 10 0 0
BITMAP
08
28
70
60
F8
60
60
60
68
30
ENDCHAR

STARTCHAR zacute
ENCODING 188
SWIDTH 500 0
DWIDTH 7 0
BBX 6 9 1 0
BITMAP
18
20
00
FC
98
30
30
64
FC
ENDCHAR

STARTCHAR hungarumlaut
ENCODING 189
SWIDTH 333 0
DWIDTH 4 0
BBX 6 2 0 7
BITMAP
6C
90
ENDCHAR

STARTCHAR zcaron
ENCODING 190
SWIDTH 500 0
DWIDTH 7 0
BBX 6 9 1 0
BITMAP
48
30
00
FC
98
30
30
64
FC
ENDCHAR

STARTCHAR zdotaccent
ENCODING 191
SWIDTH 500 0
DWIDTH 7 0
BBX 6 8 1 0
BITMAP
30
00
FC
98
30
30
64
FC
ENDCHAR

STARTCHAR Racute
ENCODING 192
SWIDTH 722 0
DWIDTH 9 0
BBX 9 12 1 0
BITMAP
0C00
1000
0000
FE00
6300
6300
6200
7C00
6C00
6600
6300
F380
ENDCHAR

STARTCHAR Aacute
ENCODING 193
SWIDTH 778 0
DWIDTH 10 0
BBX 9 12 1 0
BITMAP
0600
0800
0000
0800
0800
1C00
1C00
2600
3E00
4300
4300
E780
ENDCHAR

STARTCHAR Acircumflex
ENCODING 194
SWIDTH 778 0
DWIDTH 10 0
BBX 9 12 1 0
BITMAP
0C00
1200
0000
0800
0800
1C00
1C00
2600
3E00
4300
4300
E780
ENDCHAR

STARTCHAR Abreve
ENCODING 195
SWIDTH 778 0
DWIDTH 10 0
BBX 9 12 1 0
BITMAP
2200
1C00
0000
0800
0800
1C00
1C00
2600
3E00
4300
4300
E780
ENDCHAR

STARTCHAR Adieresis
ENCODING 196
SWIDTH 778 0
DWIDTH 10 0
BBX 9 11 1 0
BITMAP
3600
0000
0800
0800
1C00
1C00
2600
3E00
4300
4300
E780
ENDCHAR

STARTCHAR Lacute
ENCODING 197
SWIDTH 611 0
DWIDTH 8 0
BBX 7 12 1 0
BITMAP
18
20
00
F0
60
60
60
60
60
60
62
FE
ENDCHAR

STARTCHAR Cacute
ENCODING 198
SWIDTH 722 0
DWIDTH 9 0
BBX 8 12 1 0
BITMAP
06
08
00
3F
61
C1
C0
C0
C0
C0
61
3E
ENDCHAR

STARTCHAR Ccedilla
ENCODING 199
SWIDTH 722 0
DWIDTH 9 0
BBX 8 12 1 -3
BITMAP
3F
61
C1
C0
C0
C0
C0
61
3E
08
04
18
ENDCHAR

STARTCHAR Ccaron
ENCODING 200
SWIDTH 722 0
DWIDTH 9 0
BBX 8 12 1 0
BITMAP
12
0C
00
3F
61
C1
C0
C0
C0
C0
61
3E
ENDCHAR

STARTCHAR Eacute
ENCODING 201
SWIDTH 611 0
DWIDTH 8 0
BBX 7 12 1 0
BITMAP
0C
10
00
FE
62
60
64
7C
64
60
62
FE
ENDCHAR

STARTCHAR Eogonek
ENCODING 202
SWIDTH 611 0
DWIDTH 8 0
BBX 7 11 1 -2
BITMAP
FE
62
60
64
7C
64
60
62
FE
08
06
ENDCHAR

STARTCHAR Edieresis
ENCODING 203
SWIDTH 611 0
DWIDTH 8 0
BBX 7 11 1 0
BITMAP
6C
00
FE
62
60
64
7C
64
60
62
FE
ENDCHAR

STARTCHAR Ecaron
ENCODING 204
SWIDTH 611 0
DWIDTH 8 0
BBX 7 12 1 0
BITMAP
24
18
00
FE
62
60
64
7C
64
60
62
FE
ENDCHAR

STARTCHAR Iacute
ENCODING 205
SWIDTH 389 0
DWIDTH 5 0
BBX 4 12 1 0
BITMAP
30
40
00
F0
60
60
60
60
60
60
60
F0
ENDCHAR

STARTCHAR Icircumflex
ENCODING 206
SWIDTH 389 0
DWIDTH 5 0
BBX 4 12 1 0
BITMAP
60
90
00
F0
60
60
60
60
60
60
60
F0
ENDCHAR

STARTCHAR Dcaron
ENCODING 207
SWIDTH 833 0
DWIDTH 11 0
BBX 10 12 1 0
BITMAP
1200
0C00
0000
FF00
6180
60C0
60C0
60C0
60C0
60C0
6180
FF00
ENDCHAR

STARTCHAR Dcroat
ENCODING 208
SWIDTH 833 0
DWIDTH 11 0
BBX 10 9 1 0
BITMAP
FF00
6180
60C0
60C0
F8C0
60C0
60C0
6180
FF00
ENDCHAR

STARTCHAR Nacute
ENCODING 209
SWIDTH 833 0
DWIDTH 10 0
BBX 9 12 1 0
BITMAP
0600
0800
0000
E380
7100
7100
5900
5D00
4D00
4700
4700
E300
ENDCHAR

STARTCHAR Ncaron
ENCODING 210
SWIDTH 833 0
DWIDTH 10 0
BBX 9 12 1 0
BITMAP
1200
0C00
0000
E380
7100
7100
5900
5D00
4D00
4700
4700
E300
ENDCHAR

STARTCHAR Oacute
ENCODING 211
SWIDTH 833 0
DWIDTH 10 0
BBX 9 12 1 0
BITMAP
0600
0800
0000
3E00
6300
C180
C180
C180
C180
C180
6300
3E00
ENDCHAR

STARTCHAR Ocircumflex
ENCODING 212
SWIDTH 833 0
DWIDTH 10 0
BBX 9 12 1 0
BITMAP
0C00
1200
0000
3E00
6300
C180
C180
C180
C180
C180
6300
3E00
ENDCHAR

STARTCHAR Ohungarumlaut
ENCODING 213
SWIDTH 833 0
DWIDTH 10 0
BBX 9 12 1 0
BITMAP
1B00
2400
0000
3E00
6300
C180
C180
C180
C180
C180
6300
3E00
ENDCHAR

STARTCHAR Odieresis
ENCODING 214
SWIDTH 833 0
DWIDTH 10 0
BBX 9 11 1 0
BITMAP
3600
0000
3E00
6300
C180
C180
C180
C180
C180
6300
3E00
ENDCHAR

STARTCHAR multiply
ENCODING 215
SWIDTH 606 0
DWIDTH 8 0
BBX 6 5 1 2
BITMAP
CC
78
30
78
CC
ENDCHAR

STARTCHAR Rcaron
ENCODING 216
SWIDTH 722 0
DWIDTH 9 0
BBX 9 12 1 0
BITMAP
2400
1800
0000
FE00
6300
6300
6200
7C00
6C00
6600
6300
F380
ENDCHAR

STARTCHAR Uring
ENCODING 217
SWIDTH 778 0
DWIDTH 11 0
BBX 10 13 1 0
BITMAP
0400
0A00
0400
0000
F1C0
6080
6080
6080
6080
6080
6080
3100
1E00
ENDCHAR

STARTCHAR Uacute
ENCODING 218
SWIDTH 778 0
DWIDTH 11 0
BBX 10 12 1 0
BITMAP
0600
0800
0000
F1C0
6080
6080
6080
6080
6080
6080
3100
1E00
ENDCHAR

STARTCHAR Uhungarumlaut
ENCODING 219
SWIDTH 778 0
DWIDTH 11 0
BBX 10 12 1 0
BITMAP
1B00
2400
0000
F1C0
6080
6080
6080
6080
6080
6080
3100
1E00
ENDCHAR

STARTCHAR Udieresis
ENCODING 220
SWIDTH 778 0
DWIDTH 11 0
BBX 10 11 1 0
BITMAP
1B00
0000
F1C0
6080
6080
6080
6080
6080
6080
3100
1E00
ENDCHAR

STARTCHAR Yacute
ENCODING 221
SWIDTH 667 0
DWIDTH 9 0
BBX 9 12 0 0
BITMAP
0600
0800
0000
F380
6100
3200
1C00
0C00
0C00
0C00
0C00
1E00
ENDCHAR

STARTCHAR Tcommaaccent
ENCODING 222
SWIDTH 667 0
DWIDTH 9 0
BBX 8 13 1 -4
BITMAP
FF
99
18
18
18
18
18
18
3C
00
18
08
10
ENDCHAR

STARTCHAR germandbls
ENCODING 223
SWIDTH 611 0
DWIDTH 8 0
BBX 7 10 0 0
BITMAP
1C
26
62
66
E8
6C
66
62
62
EC
ENDCHAR

STARTCHAR racute
ENCODING 224
SWIDTH 389 0
DWIDTH 5 0
BBX 6 9 0 0
BITMAP
18
20
00
2C
FC
60
60
60
F0
ENDCHAR

STARTCHAR aacute
ENCODING 225
SWIDTH 500 0
DWIDTH 7 0
BBX 6 9 1 0
BITMAP
18
20
00
70
18
78
D8
D8
6C
ENDCHAR

STARTCHAR acircumflex
ENCODING 226
SWIDTH 500 0
DWIDTH 7 0
BBX 6 9 1 0
BITMAP
30
48
00
70
18
78
D8
D8
6C
ENDCHAR

STARTCHAR abreve
ENCODING 227
SWIDTH 500 0
DWIDTH 7 0
BBX 6 9 1 0
BITMAP
88
70
00
70
18
78
D8
D8
6C
ENDCHAR

STARTCHAR adieresis
ENCODING 228
SWIDTH 500 0
DWIDTH 7 0
BBX 6 8 1 0
BITMAP
D8
00
70
18
78
D8
D8
6C
ENDCHAR

STARTCHAR lacute
ENCODING 229
SWIDTH 333 0
DWIDTH 4 0
BBX 4 13 0 0
BITMAP
30
40
00
20
E0
60
60
60
60
60
60
60
F0
ENDCHAR

STARTCHAR cacute
ENCODING 230
SWIDTH 444 0
DWIDTH 6 0
BBX 5 9 1 0
BITMAP
18
20
00
78
C8
C0
C0
C8
70
ENDCHAR

STARTCHAR ccedilla
ENCODING 231
SWIDTH 444 0
DWIDTH 6 0
BBX 5 9 1 -3
BITMAP
78
C8
C0
C0
C8
70
20
10
60
ENDCHAR

STARTCHAR ccaron
ENCODING 232
SWIDTH 444 0
DWIDTH 6 0
BBX 5 9 1 0
BITMAP
48
30
00
78
C8
C0
C0
C8
70
ENDCHAR

STARTCHAR eacute
ENCODING 233
SWIDTH 500 0
DWIDTH 7 0
BBX 5 9 1 0
BITMAP
18
20
00
70
D8
F8
C0
C8
70
ENDCHAR

STARTCHAR eogonek
ENCODING 234
SWIDTH 500 0
DWIDTH 7 0
BBX 5 8 1 -2
BITMAP
70
D8
F8
C0
C8
70
20
18
ENDCHAR

STARTCHAR edieresis
ENCODING 235
SWIDTH 500 0
DWIDTH 7 0
BBX 5 8 1 0
BITMAP
D8
00
70
D8
F8
C0
C8
70
ENDCHAR

STARTCHAR ecaron
ENCODING 236
SWIDTH 500 0
DWIDTH 7 0
BBX 5 9 1 0
BITMAP
48
30
00
70
D8
F8
C0
C8
70
ENDCHAR

STARTCHAR iacute
ENCODING 237
SWIDTH 333 0
DWIDTH 4 0
BBX 4 9 0 0
BITMAP
30
40
00
20
E0
60
60
60
F0
ENDCHAR

STARTCHAR icircumflex
ENCODING 238
SWIDTH 333 0
DWIDTH 4 0
BBX 4 9 0 0
BITMAP
60
90
00
20
E0
60
60
60
F0
ENDCHAR

STARTCHAR dcaron
ENCODING 239
SWIDTH 738 0
DWIDTH 8 0
BBX 8 10 1 0
BITMAP
05
1D
0E
0C
6C
DC
CC
CC
DC
6E
ENDCHAR

STARTCHAR dcroat
ENCODING 240
SWIDTH 611 0
DWIDTH 8 0
BBX 7 10 1 0
BITMAP
04
1E
0C
0C
6C
DC
CC
CC
DC
6E
ENDCHAR

STARTCHAR nacute
ENCODING 241
SWIDTH 611 0
DWIDTH 8 0
BBX 8 9 0 0
BITMAP
0C
10
00
2C
F6
66
66
66
F7
ENDCHAR

STARTCHAR ncaron
ENCODING 242
SWIDTH 611 0
DWIDTH 8 0
BBX 8 9 0 0
BITMAP
24
18
00
2C
F6
66
66
66
F7
ENDCHAR

STARTCHAR oacute
ENCODING 243
SWIDTH 556 0
DWIDTH 8 0
BBX 6 9 1 0
BITMAP
18
20
00
78
CC
CC
CC
CC
78
ENDCHAR

STARTCHAR ocircumflex
ENCODING 244
SWIDTH 556 0
DWIDTH 8 0
BBX 6 9 1 0
BITMAP
30
48
00
78
CC
CC
CC
CC
78
ENDCHAR

STARTCHAR ohungarumlaut
ENCODING 245
SWIDTH 556 0
DWIDTH 8 0
BBX 6 9 1 0
BITMAP
6C
90
00
78
CC
CC
CC
CC
78
ENDCHAR

STARTCHAR odieresis
ENCODING 246
SWIDTH 556 0
DWIDTH 8 0
BBX 6 8 1 0
BITMAP
6C
00
78
CC
CC
CC
CC
78
ENDCHAR

STARTCHAR divide
ENCODING 247
SWIDTH 606 0
DWIDTH 8 0
BBX 6 5 1 2
BITMAP
30
00
FC
00
30
ENDCHAR

STARTCHAR rcaron
ENCODING 248
SWIDTH 389 0
DWIDTH 5 0
BBX 6 9 0 0
BITMAP
48
30
00
2C
FC
60
60
60
F0
ENDCHAR

STARTCHAR uring
ENCODING 249
SWIDTH 611 0
DWIDTH 8 0
BBX 8 10 0 0
BITMAP
08
14
08
00
22
EE
66
66
66
3B
ENDCHAR

STARTCHAR uacute
ENCODING 250
SWIDTH 611 0
DWIDTH 8 0
BBX 8 9 0 0
BITMAP
0C
10
00
22
EE
66
66
66
3B
ENDCHAR

STARTCHAR uhungarumlaut
ENCODING 251
SWIDTH 611 0
DWIDTH 8 0
BBX 8 9 0 0
BITMAP
36
48
00
22
EE
66
66
66
3B
ENDCHAR

STARTCHAR udieresis
ENCODING 252
SWIDTH 611 0
DWIDTH 8 0
BBX 8 8 0 0
BITMAP
6C
00
22
EE
66
66
66
3B
ENDCHAR

STARTCHAR yacute
ENCODING 253
SWIDTH 556 0
DWIDTH 7 0
BBX 7 12 0 -3
BITMAP
0C
10
00
F6
64
34
38
18
10
10
20
C0
ENDCHAR

STARTCHAR tcommaaccent
ENCODING 254
SWIDTH 333 0
DWIDTH 4 0
BBX 5 13 0 -4
BITMAP
20
60
60
F8
60
60
60
68
30
00
60
20
40
ENDCHAR

STARTCHAR dotaccent
ENCODING 255
SWIDTH 333 0
DWIDTH 4 0
BBX 2 1 1 7
BITMAP
C0
ENDCHAR
ENDFONT
